<svg width="422.4" height="75.201" viewBox="0 0 422.4 75.201" xmlns="http://www.w3.org/2000/svg"><g id="svgGroup" stroke-linecap="round" fill-rule="evenodd" font-size="9pt" stroke="#ffffff" stroke-width="0.25mm" fill="#ffffff" style="stroke:#ffffff;stroke-width:0.25mm;fill:#ffffff"><path d="M 42 74 L 0 74 L 0 4 L 42 4 L 42 12.2 L 9.5 12.2 L 9.5 33.5 L 37.5 33.5 L 37.5 41.5 L 9.5 41.5 L 9.5 65.8 L 42 65.8 L 42 74 Z M 402.9 71.5 L 394.2 75 L 386.4 55 L 354 55 L 346.2 74.8 L 338.1 71.5 L 365.5 4 L 375.9 4 L 402.9 71.5 Z M 127.7 51.7 L 91.3 51.7 A 24.088 24.088 0 0 0 92.439 56.725 Q 93.775 60.538 96.4 63.1 Q 100.6 67.2 107.5 67.2 Q 112 67.2 115.6 66.25 Q 119.2 65.3 122.5 63.8 L 124.6 71.5 A 40.77 40.77 0 0 1 120.265 73.126 A 51.863 51.863 0 0 1 116.5 74.15 A 38.914 38.914 0 0 1 111.408 74.969 A 52.025 52.025 0 0 1 106.4 75.2 A 28.318 28.318 0 0 1 98.654 74.195 A 21.108 21.108 0 0 1 88.65 68.05 A 23.521 23.521 0 0 1 83.445 58.51 Q 82.1 53.845 82.1 48 A 35.359 35.359 0 0 1 82.933 40.178 A 28.84 28.84 0 0 1 85.05 34.05 A 24.642 24.642 0 0 1 90.066 26.968 A 22.887 22.887 0 0 1 93.3 24.35 A 21.048 21.048 0 0 1 103.559 20.878 A 26.205 26.205 0 0 1 105.6 20.8 Q 113.1 20.8 118.05 24.05 Q 123 27.3 125.5 32.8 A 28.185 28.185 0 0 1 127.926 42.664 A 33.434 33.434 0 0 1 128 44.9 A 75.204 75.204 0 0 1 127.709 51.597 A 69.426 69.426 0 0 1 127.7 51.7 Z M 332.8 51.7 L 296.4 51.7 A 24.088 24.088 0 0 0 297.539 56.725 Q 298.875 60.538 301.5 63.1 Q 305.7 67.2 312.6 67.2 Q 317.1 67.2 320.7 66.25 Q 324.3 65.3 327.6 63.8 L 329.7 71.5 A 40.77 40.77 0 0 1 325.365 73.126 A 51.863 51.863 0 0 1 321.6 74.15 A 38.914 38.914 0 0 1 316.508 74.969 A 52.025 52.025 0 0 1 311.5 75.2 A 28.318 28.318 0 0 1 303.754 74.195 A 21.108 21.108 0 0 1 293.75 68.05 A 23.521 23.521 0 0 1 288.545 58.51 Q 287.2 53.845 287.2 48 A 35.359 35.359 0 0 1 288.033 40.178 A 28.84 28.84 0 0 1 290.15 34.05 A 24.642 24.642 0 0 1 295.166 26.968 A 22.887 22.887 0 0 1 298.4 24.35 A 21.048 21.048 0 0 1 308.659 20.878 A 26.205 26.205 0 0 1 310.7 20.8 Q 318.2 20.8 323.15 24.05 Q 328.1 27.3 330.6 32.8 A 28.185 28.185 0 0 1 333.026 42.664 A 33.434 33.434 0 0 1 333.1 44.9 A 75.204 75.204 0 0 1 332.809 51.597 A 69.426 69.426 0 0 1 332.8 51.7 Z M 163.3 74 L 153.9 74 L 133 24.4 L 141.2 21 L 158.9 63.8 L 176.6 21 L 184.3 24.4 L 163.3 74 Z M 255 56.1 L 255 31.7 L 246 31.7 L 246 23.9 L 255.2 23.9 L 257.1 7.5 L 264 7.5 L 264 23.9 L 278.4 23.9 L 278.4 31.7 L 264 31.7 L 264 56.8 A 21.559 21.559 0 0 0 264.168 59.596 Q 264.641 63.202 266.45 64.9 Q 268.9 67.2 272.3 67.2 Q 274.8 67.2 277.05 66.4 Q 279.3 65.6 281.2 64.5 L 283.7 71.7 A 18.546 18.546 0 0 1 282.082 72.556 Q 281.28 72.935 280.334 73.308 A 43.365 43.365 0 0 1 278.3 74.05 Q 274.9 75.2 271.2 75.2 Q 263.7 75.2 259.35 70.25 A 16.116 16.116 0 0 1 256.122 64.348 Q 255.359 61.917 255.115 58.98 A 34.777 34.777 0 0 1 255 56.1 Z M 226.9 26.2 L 226.9 22 L 235.1 22 L 235.1 61.4 A 12.15 12.15 0 0 0 235.202 63.036 Q 235.534 65.47 236.95 66.35 Q 238.8 67.5 241 67.5 L 239.1 74.5 A 17.722 17.722 0 0 1 234.835 74.028 Q 229.198 72.628 227.603 67.08 A 13.59 13.59 0 0 1 227.5 66.7 A 21.307 21.307 0 0 1 224.39 70.126 A 28.498 28.498 0 0 1 221.25 72.55 Q 217.3 75.2 211.2 75.2 Q 204.7 75.2 199.4 71.9 A 22.947 22.947 0 0 1 191.987 64.373 A 27.923 27.923 0 0 1 190.95 62.55 A 27.228 27.228 0 0 1 188.32 54.608 A 36.644 36.644 0 0 1 187.8 48.3 A 33.142 33.142 0 0 1 188.797 40.031 A 27.968 27.968 0 0 1 190.95 34.3 Q 194.1 28.1 199.65 24.45 A 22.297 22.297 0 0 1 210.845 20.844 A 27.388 27.388 0 0 1 212.4 20.8 A 22.584 22.584 0 0 1 217.194 21.29 A 18.703 18.703 0 0 1 220.55 22.35 A 26.002 26.002 0 0 1 224.837 24.644 A 22.103 22.103 0 0 1 226.9 26.2 Z M 52 57.7 L 52 0 L 61 0 L 61 56.8 A 20.644 20.644 0 0 0 61.188 59.688 Q 61.65 62.952 63.25 64.8 A 7.363 7.363 0 0 0 67.834 67.276 A 10.724 10.724 0 0 0 69.5 67.4 Q 71.4 67.4 73.25 66.95 A 22.192 22.192 0 0 0 74.713 66.544 Q 75.648 66.247 76.4 65.9 L 78.6 73.2 Q 77.201 73.822 75.288 74.323 A 34.978 34.978 0 0 1 74.15 74.6 A 23.816 23.816 0 0 1 70.995 75.085 A 30.514 30.514 0 0 1 68.3 75.2 A 20.862 20.862 0 0 1 63.41 74.646 A 17.544 17.544 0 0 1 60 73.45 A 12.683 12.683 0 0 1 54.675 68.685 A 15.856 15.856 0 0 1 54.15 67.8 Q 52.416 64.654 52.08 60.012 A 32.105 32.105 0 0 1 52 57.7 Z M 422.4 74 L 412.9 74 L 412.9 4 L 422.4 4 L 422.4 74 Z M 226.1 60.7 L 226.1 32.8 Q 223.4 30.9 220.15 29.75 Q 216.9 28.6 213.3 28.6 A 15.924 15.924 0 0 0 208.329 29.354 A 14.024 14.024 0 0 0 204.85 31.05 A 16.301 16.301 0 0 0 199.831 36.474 A 19.962 19.962 0 0 0 199.1 37.85 A 20.663 20.663 0 0 0 197.347 43.527 A 27.678 27.678 0 0 0 197 48 Q 197 53.6 199.1 57.95 A 17.602 17.602 0 0 0 202.206 62.496 A 15.697 15.697 0 0 0 204.9 64.75 Q 208.6 67.2 213.2 67.2 Q 217 67.2 220.4 65.35 Q 223.8 63.5 226.1 60.7 Z M 370.2 13.4 L 357 47 L 383.3 47 L 370.2 13.4 Z M 91.2 44.4 L 119.7 44.4 A 24.355 24.355 0 0 0 119.296 39.815 Q 118.8 37.231 117.696 35.207 A 12.422 12.422 0 0 0 115.9 32.7 A 12.488 12.488 0 0 0 108.939 28.924 A 18.395 18.395 0 0 0 105.4 28.6 A 13.58 13.58 0 0 0 100.288 29.535 A 12.524 12.524 0 0 0 95.8 32.65 Q 92 36.7 91.2 44.4 Z M 296.3 44.4 L 324.8 44.4 A 24.355 24.355 0 0 0 324.396 39.815 Q 323.9 37.231 322.796 35.207 A 12.422 12.422 0 0 0 321 32.7 A 12.488 12.488 0 0 0 314.039 28.924 A 18.395 18.395 0 0 0 310.5 28.6 A 13.58 13.58 0 0 0 305.388 29.535 A 12.524 12.524 0 0 0 300.9 32.65 Q 297.1 36.7 296.3 44.4 Z" vector-effect="non-scaling-stroke"/></g></svg>